<svg xmlns="http://www.w3.org/2000/svg" width="1000" height="610" viewBox="0 0 1000 610"><rect width="100%" height="100%" fill="white"/><text x="500" y="38" text-anchor="middle" font-family="Arial" font-size="22" font-weight="700" fill="#333">Forest Conversion Business Outcomes</text><text x="500" y="62" text-anchor="middle" font-family="Arial" font-size="13" fill="#666">Final-year indices. Mixed watershed-food-tourism forests outperform timber-only and abandoned monoculture scenarios.</text><line x1="120" y1="500" x2="820" y2="500" stroke="#333"/><line x1="120" y1="100" x2="120" y2="500" stroke="#333"/><g font-family="Arial" font-size="12" fill="#666"><line x1="120" y1="420" x2="820" y2="420" stroke="#e6e6e6"/><text x="110" y="425" text-anchor="end">20</text><line x1="120" y1="340" x2="820" y2="340" stroke="#e6e6e6"/><text x="110" y="345" text-anchor="end">40</text><line x1="120" y1="260" x2="820" y2="260" stroke="#e6e6e6"/><text x="110" y="265" text-anchor="end">60</text><line x1="120" y1="180" x2="820" y2="180" stroke="#e6e6e6"/><text x="110" y="185" text-anchor="end">80</text></g><g><rect x="175" y="274" width="34" height="226" fill="#d62728"/><rect x="215" y="272" width="34" height="228" fill="#d62728"/><rect x="255" y="271" width="34" height="229" fill="#d62728"/><rect x="295" y="280" width="34" height="220" fill="#d62728"/><rect x="335" y="242" width="34" height="258" fill="#d62728"/><rect x="430" y="397" width="34" height="103" fill="#8c564b"/><rect x="470" y="326" width="34" height="174" fill="#8c564b"/><rect x="510" y="325" width="34" height="175" fill="#8c564b"/><rect x="550" y="334" width="34" height="166" fill="#8c564b"/><rect x="590" y="298" width="34" height="202" fill="#8c564b"/></g><g font-family="Arial" font-size="12" fill="#333"><text x="270" y="530" text-anchor="middle">Integrated Watershed Food Tourism</text><text x="525" y="530" text-anchor="middle">Native-Fruit Mixed Forest</text><text x="250" y="560" text-anchor="middle">Value / Watershed / Cooling / Biodiversity / Food-Tourism</text></g><g font-family="Arial" font-size="13" fill="#333"><rect x="835" y="120" width="22" height="14" fill="#d62728"/><text x="867" y="132">Integrated Forest</text><rect x="835" y="152" width="22" height="14" fill="#8c564b"/><text x="867" y="164">Native-Fruit Mixed Forest</text></g><text x="120" y="595" font-family="Arial" font-size="12" fill="#777">Conceptual deterministic model. Values are illustrative indices, not forecasts.</text></svg>