<svg xmlns="http://www.w3.org/2000/svg" width="1100" height="650" viewBox="0 0 1100 650">
<rect width="100%" height="100%" fill="white"/>
<text x="550.0" y="34" text-anchor="middle" font-family="Arial, sans-serif" font-size="24" font-weight="700" fill="#333">Accounting Offset Value: Ledger Growth Without Guaranteed Cooling</text>
<text x="550.0" y="630" text-anchor="middle" font-family="Arial, sans-serif" font-size="15" fill="#555">Year</text>
<text transform="translate(24,325.0) rotate(-90)" text-anchor="middle" font-family="Arial, sans-serif" font-size="15" fill="#555">Accounting value index</text>
<line x1="90" y1="570.0" x2="800" y2="570.0" stroke="#e6e6e6"/>
<text x="78" y="575.0" text-anchor="end" font-family="Arial, sans-serif" font-size="12" fill="#666">0</text>
<line x1="90" y1="470.0" x2="800" y2="470.0" stroke="#e6e6e6"/>
<text x="78" y="475.0" text-anchor="end" font-family="Arial, sans-serif" font-size="12" fill="#666">67</text>
<line x1="90" y1="370.0" x2="800" y2="370.0" stroke="#e6e6e6"/>
<text x="78" y="375.0" text-anchor="end" font-family="Arial, sans-serif" font-size="12" fill="#666">133</text>
<line x1="90" y1="270.0" x2="800" y2="270.0" stroke="#e6e6e6"/>
<text x="78" y="275.0" text-anchor="end" font-family="Arial, sans-serif" font-size="12" fill="#666">200</text>
<line x1="90" y1="170.0" x2="800" y2="170.0" stroke="#e6e6e6"/>
<text x="78" y="175.0" text-anchor="end" font-family="Arial, sans-serif" font-size="12" fill="#666">266</text>
<line x1="90" y1="70.0" x2="800" y2="70.0" stroke="#e6e6e6"/>
<text x="78" y="75.0" text-anchor="end" font-family="Arial, sans-serif" font-size="12" fill="#666">333</text>
<line x1="90.0" y1="570" x2="90.0" y2="576" stroke="#555"/>
<text x="90.0" y="594" text-anchor="middle" font-family="Arial, sans-serif" font-size="12" fill="#666">0</text>
<line x1="267.5" y1="570" x2="267.5" y2="576" stroke="#555"/>
<text x="267.5" y="594" text-anchor="middle" font-family="Arial, sans-serif" font-size="12" fill="#666">5</text>
<line x1="445.0" y1="570" x2="445.0" y2="576" stroke="#555"/>
<text x="445.0" y="594" text-anchor="middle" font-family="Arial, sans-serif" font-size="12" fill="#666">10</text>
<line x1="622.5" y1="570" x2="622.5" y2="576" stroke="#555"/>
<text x="622.5" y="594" text-anchor="middle" font-family="Arial, sans-serif" font-size="12" fill="#666">15</text>
<line x1="800.0" y1="570" x2="800.0" y2="576" stroke="#555"/>
<text x="800.0" y="594" text-anchor="middle" font-family="Arial, sans-serif" font-size="12" fill="#666">20</text>
<line x1="90" y1="570" x2="800" y2="570" stroke="#333"/>
<line x1="90" y1="70" x2="90" y2="570" stroke="#333"/>
<polyline points="90.0,502.4 125.5,495.7 161.0,488.2 196.5,480.1 232.0,471.1 267.5,461.2 303.0,450.3 338.5,438.3 374.0,425.2 409.5,410.7 445.0,394.8 480.5,377.2 516.0,358.0 551.5,336.7 587.0,313.4 622.5,287.8 658.0,259.5 693.5,228.5 729.0,194.3 764.5,156.8 800.0,115.5" fill="none" stroke="#6f6f6f" stroke-width="3"/>
<circle cx="800.0" cy="115.5" r="4" fill="#6f6f6f"/>
<polyline points="90.0,467.9 125.5,462.8 161.0,457.4 196.5,451.8 232.0,445.9 267.5,439.7 303.0,433.2 338.5,426.3 374.0,419.2 409.5,411.6 445.0,403.7 480.5,395.4 516.0,386.6 551.5,377.5 587.0,367.9 622.5,357.7 658.0,347.1 693.5,336.0 729.0,324.3 764.5,312.0 800.0,299.1" fill="none" stroke="#8c564b" stroke-width="3"/>
<circle cx="800.0" cy="299.1" r="4" fill="#8c564b"/>
<polyline points="90.0,446.9 125.5,439.5 161.0,431.7 196.5,423.4 232.0,414.6 267.5,405.2 303.0,395.4 338.5,384.9 374.0,373.8 409.5,362.0 445.0,349.5 480.5,336.3 516.0,322.3 551.5,307.4 587.0,291.6 622.5,274.9 658.0,257.2 693.5,238.5 729.0,218.6 764.5,197.5 800.0,175.1" fill="none" stroke="#d62728" stroke-width="3"/>
<circle cx="800.0" cy="175.1" r="4" fill="#d62728"/>
<polyline points="90.0,464.9 125.5,459.6 161.0,454.1 196.5,448.3 232.0,442.2 267.5,435.9 303.0,429.2 338.5,422.1 374.0,414.7 409.5,407.0 445.0,398.8 480.5,390.2 516.0,381.3 551.5,371.8 587.0,361.9 622.5,351.5 658.0,340.6 693.5,329.1 729.0,317.1 764.5,304.4 800.0,291.1" fill="none" stroke="#2ca02c" stroke-width="3"/>
<circle cx="800.0" cy="291.1" r="4" fill="#2ca02c"/>
<polyline points="90.0,457.4 125.5,451.8 161.0,445.8 196.5,439.6 232.0,433.1 267.5,426.3 303.0,419.1 338.5,411.5 374.0,403.6 409.5,395.3 445.0,386.6 480.5,377.4 516.0,367.8 551.5,357.7 587.0,347.0 622.5,335.9 658.0,324.2 693.5,311.9 729.0,299.0 764.5,285.4 800.0,271.2" fill="none" stroke="#1f77b4" stroke-width="3"/>
<circle cx="800.0" cy="271.2" r="4" fill="#1f77b4"/>
<text x="835" y="80" font-family="Arial, sans-serif" font-size="15" font-weight="700" fill="#333">Scenario</text>
<line x1="835" y1="90" x2="863" y2="90" stroke="#6f6f6f" stroke-width="4"/>
<text x="873" y="95" font-family="Arial, sans-serif" font-size="13" fill="#333">Accounting Offset Only</text>
<line x1="835" y1="122" x2="863" y2="122" stroke="#1f77b4" stroke-width="4"/>
<text x="873" y="127" font-family="Arial, sans-serif" font-size="13" fill="#333">Urban Mist Cooling</text>
<line x1="835" y1="154" x2="863" y2="154" stroke="#2ca02c" stroke-width="4"/>
<text x="873" y="159" font-family="Arial, sans-serif" font-size="13" fill="#333">Organic Waste to Humus</text>
<line x1="835" y1="186" x2="863" y2="186" stroke="#8c564b" stroke-width="4"/>
<text x="873" y="191" font-family="Arial, sans-serif" font-size="13" fill="#333">Forest Regeneration</text>
<line x1="835" y1="218" x2="863" y2="218" stroke="#d62728" stroke-width="4"/>
<text x="873" y="223" font-family="Arial, sans-serif" font-size="13" fill="#333">Integrated Natural Feedback</text>
<text x="90" y="625" font-family="Arial, sans-serif" font-size="12" fill="#777">Conceptual deterministic model. Values are illustrative indices, not forecasts.</text>
</svg>