<svg xmlns="http://www.w3.org/2000/svg" width="1000" height="560" viewBox="0 0 1000 560"><rect width="100%" height="100%" fill="white"/><text x="500" y="38" text-anchor="middle" font-family="Arial" font-size="22" font-weight="700" fill="#333">Cooling Credit Value with Desert Edge Scenario</text><text x="500" y="62" text-anchor="middle" font-family="Arial" font-size="13" fill="#666">Final-year composite index. Higher is stronger in this conceptual model.</text><line x1="260" y1="480" x2="850" y2="480" stroke="#333"/><g font-family="Arial" font-size="13" fill="#333"><text x="250" y="105" text-anchor="end">Integrated Natural Feedback</text><rect x="260" y="82" width="570" height="34" fill="#d62728"/><text x="840" y="105">43.88</text><text x="250" y="160" text-anchor="end">Coastal Desert Edge</text><rect x="260" y="137" width="122" height="34" fill="#bcbd22"/><text x="392" y="160">9.40</text><text x="250" y="215" text-anchor="end">Forest Regeneration</text><rect x="260" y="192" width="106" height="34" fill="#8c564b"/><text x="376" y="215">8.17</text><text x="250" y="270" text-anchor="end">Organic Waste to Humus</text><rect x="260" y="247" width="81" height="34" fill="#2ca02c"/><text x="351" y="270">6.22</text><text x="250" y="325" text-anchor="end">EEZ Ocean Cooling</text><rect x="260" y="302" width="67" height="34" fill="#17becf"/><text x="337" y="325">5.18</text><text x="250" y="380" text-anchor="end">Urban Mist Cooling</text><rect x="260" y="357" width="48" height="34" fill="#1f77b4"/><text x="318" y="380">3.73</text><text x="250" y="435" text-anchor="end">Accounting Only</text><rect x="260" y="412" width="0" height="34" fill="#6f6f6f"/><text x="268" y="435">0.00</text></g><text x="260" y="535" font-family="Arial" font-size="12" fill="#777">Conceptual deterministic model. Values are illustrative indices, not forecasts.</text></svg>