<svg xmlns="http://www.w3.org/2000/svg" width="1100" height="650" viewBox="0 0 1100 650">
<rect width="100%" height="100%" fill="white"/>
<text x="550.0" y="34" text-anchor="middle" font-family="Arial, sans-serif" font-size="24" font-weight="700" fill="#333">Cooling Credit Value: Physical Cooling + Natural Feedback</text>
<text x="550.0" y="630" text-anchor="middle" font-family="Arial, sans-serif" font-size="15" fill="#555">Year</text>
<text transform="translate(24,325.0) rotate(-90)" text-anchor="middle" font-family="Arial, sans-serif" font-size="15" fill="#555">Composite value index</text>
<line x1="90" y1="570.0" x2="800" y2="570.0" stroke="#e6e6e6"/>
<text x="78" y="575.0" text-anchor="end" font-family="Arial, sans-serif" font-size="12" fill="#666">0</text>
<line x1="90" y1="470.0" x2="800" y2="470.0" stroke="#e6e6e6"/>
<text x="78" y="475.0" text-anchor="end" font-family="Arial, sans-serif" font-size="12" fill="#666">13</text>
<line x1="90" y1="370.0" x2="800" y2="370.0" stroke="#e6e6e6"/>
<text x="78" y="375.0" text-anchor="end" font-family="Arial, sans-serif" font-size="12" fill="#666">25</text>
<line x1="90" y1="270.0" x2="800" y2="270.0" stroke="#e6e6e6"/>
<text x="78" y="275.0" text-anchor="end" font-family="Arial, sans-serif" font-size="12" fill="#666">38</text>
<line x1="90" y1="170.0" x2="800" y2="170.0" stroke="#e6e6e6"/>
<text x="78" y="175.0" text-anchor="end" font-family="Arial, sans-serif" font-size="12" fill="#666">50</text>
<line x1="90" y1="70.0" x2="800" y2="70.0" stroke="#e6e6e6"/>
<text x="78" y="75.0" text-anchor="end" font-family="Arial, sans-serif" font-size="12" fill="#666">63</text>
<line x1="90.0" y1="570" x2="90.0" y2="576" stroke="#555"/>
<text x="90.0" y="594" text-anchor="middle" font-family="Arial, sans-serif" font-size="12" fill="#666">0</text>
<line x1="267.5" y1="570" x2="267.5" y2="576" stroke="#555"/>
<text x="267.5" y="594" text-anchor="middle" font-family="Arial, sans-serif" font-size="12" fill="#666">5</text>
<line x1="445.0" y1="570" x2="445.0" y2="576" stroke="#555"/>
<text x="445.0" y="594" text-anchor="middle" font-family="Arial, sans-serif" font-size="12" fill="#666">10</text>
<line x1="622.5" y1="570" x2="622.5" y2="576" stroke="#555"/>
<text x="622.5" y="594" text-anchor="middle" font-family="Arial, sans-serif" font-size="12" fill="#666">15</text>
<line x1="800.0" y1="570" x2="800.0" y2="576" stroke="#555"/>
<text x="800.0" y="594" text-anchor="middle" font-family="Arial, sans-serif" font-size="12" fill="#666">20</text>
<line x1="90" y1="570" x2="800" y2="570" stroke="#333"/>
<line x1="90" y1="70" x2="90" y2="570" stroke="#333"/>
<polyline points="90.0,570.0 125.5,570.0 161.0,570.0 196.5,570.0 232.0,570.0 267.5,570.0 303.0,570.0 338.5,570.0 374.0,570.0 409.5,570.0 445.0,570.0 480.5,570.0 516.0,570.0 551.5,570.0 587.0,570.0 622.5,570.0 658.0,570.0 693.5,570.0 729.0,570.0 764.5,570.0 800.0,570.0" fill="none" stroke="#6f6f6f" stroke-width="3"/>
<circle cx="800.0" cy="570.0" r="4" fill="#6f6f6f"/>
<polyline points="90.0,570.0 125.5,569.8 161.0,568.2 196.5,563.9 232.0,556.6 267.5,548.3 303.0,539.6 338.5,530.7 374.0,521.8 409.5,513.0 445.0,504.6 480.5,496.6 516.0,489.0 551.5,481.9 587.0,475.3 622.5,469.2 658.0,463.6 693.5,458.5 729.0,453.8 764.5,449.5 800.0,445.6" fill="none" stroke="#8c564b" stroke-width="3"/>
<circle cx="800.0" cy="445.6" r="4" fill="#8c564b"/>
<polyline points="90.0,570.0 125.5,566.7 161.0,555.8 196.5,536.8 232.0,508.8 267.5,477.6 303.0,444.7 338.5,411.3 374.0,378.3 409.5,346.4 445.0,316.0 480.5,287.4 516.0,260.8 551.5,236.2 587.0,213.7 622.5,193.0 658.0,174.3 693.5,157.2 729.0,141.8 764.5,128.0 800.0,115.5" fill="none" stroke="#d62728" stroke-width="3"/>
<circle cx="800.0" cy="115.5" r="4" fill="#d62728"/>
<polyline points="90.0,570.0 125.5,569.6 161.0,566.1 196.5,560.4 232.0,553.4 267.5,546.3 303.0,539.0 338.5,532.0 374.0,525.3 409.5,518.9 445.0,513.0 480.5,507.6 516.0,502.7 551.5,498.2 587.0,494.1 622.5,490.5 658.0,487.2 693.5,484.3 729.0,481.7 764.5,479.4 800.0,477.4" fill="none" stroke="#2ca02c" stroke-width="3"/>
<circle cx="800.0" cy="477.4" r="4" fill="#2ca02c"/>
<polyline points="90.0,570.0 125.5,566.9 161.0,561.1 196.5,554.9 232.0,549.4 267.5,544.5 303.0,540.3 338.5,536.7 374.0,533.6 409.5,531.0 445.0,528.8 480.5,526.9 516.0,525.3 551.5,523.9 587.0,522.7 622.5,521.7 658.0,520.8 693.5,520.1 729.0,519.4 764.5,518.9 800.0,518.4" fill="none" stroke="#1f77b4" stroke-width="3"/>
<circle cx="800.0" cy="518.4" r="4" fill="#1f77b4"/>
<text x="835" y="80" font-family="Arial, sans-serif" font-size="15" font-weight="700" fill="#333">Scenario</text>
<line x1="835" y1="90" x2="863" y2="90" stroke="#6f6f6f" stroke-width="4"/>
<text x="873" y="95" font-family="Arial, sans-serif" font-size="13" fill="#333">Accounting Offset Only</text>
<line x1="835" y1="122" x2="863" y2="122" stroke="#1f77b4" stroke-width="4"/>
<text x="873" y="127" font-family="Arial, sans-serif" font-size="13" fill="#333">Urban Mist Cooling</text>
<line x1="835" y1="154" x2="863" y2="154" stroke="#2ca02c" stroke-width="4"/>
<text x="873" y="159" font-family="Arial, sans-serif" font-size="13" fill="#333">Organic Waste to Humus</text>
<line x1="835" y1="186" x2="863" y2="186" stroke="#8c564b" stroke-width="4"/>
<text x="873" y="191" font-family="Arial, sans-serif" font-size="13" fill="#333">Forest Regeneration</text>
<line x1="835" y1="218" x2="863" y2="218" stroke="#d62728" stroke-width="4"/>
<text x="873" y="223" font-family="Arial, sans-serif" font-size="13" fill="#333">Integrated Natural Feedback</text>
<text x="90" y="625" font-family="Arial, sans-serif" font-size="12" fill="#777">Conceptual deterministic model. Values are illustrative indices, not forecasts.</text>
</svg>