<svg xmlns="http://www.w3.org/2000/svg" width="1100" height="650" viewBox="0 0 1100 650">
<rect width="100%" height="100%" fill="white"/>
<text x="550" y="38" text-anchor="middle" font-family="Arial, sans-serif" font-size="24" font-weight="700" fill="#333">Cooling Credit Value with EEZ Ocean Scenario</text>
<text x="550" y="64" text-anchor="middle" font-family="Arial, sans-serif" font-size="13" fill="#666">Final-year composite index. Higher means stronger measured cooling + natural feedback + co-benefits.</text>
<line x1="200.0" y1="90" x2="200.0" y2="520" stroke="#e6e6e6"/>
<text x="200.0" y="542" text-anchor="middle" font-family="Arial, sans-serif" font-size="12" fill="#666">0</text>
<line x1="330.0" y1="90" x2="330.0" y2="520" stroke="#e6e6e6"/>
<text x="330.0" y="542" text-anchor="middle" font-family="Arial, sans-serif" font-size="12" fill="#666">10</text>
<line x1="460.0" y1="90" x2="460.0" y2="520" stroke="#e6e6e6"/>
<text x="460.0" y="542" text-anchor="middle" font-family="Arial, sans-serif" font-size="12" fill="#666">20</text>
<line x1="590.0" y1="90" x2="590.0" y2="520" stroke="#e6e6e6"/>
<text x="590.0" y="542" text-anchor="middle" font-family="Arial, sans-serif" font-size="12" fill="#666">30</text>
<line x1="720.0" y1="90" x2="720.0" y2="520" stroke="#e6e6e6"/>
<text x="720.0" y="542" text-anchor="middle" font-family="Arial, sans-serif" font-size="12" fill="#666">40</text>
<line x1="850.0" y1="90" x2="850.0" y2="520" stroke="#e6e6e6"/>
<text x="850.0" y="542" text-anchor="middle" font-family="Arial, sans-serif" font-size="12" fill="#666">50</text>
<text x="188" y="116.0" text-anchor="end" font-family="Arial, sans-serif" font-size="13" fill="#333">Integrated Natural Feedback</text>
<rect x="200" y="90" width="619.1" height="42" rx="5" fill="#d62728"/>
<text x="827.1" y="116.0" font-family="Arial, sans-serif" font-size="13" fill="#333">47.63</text>
<text x="188" y="184.0" text-anchor="end" font-family="Arial, sans-serif" font-size="13" fill="#333">Forest Regeneration</text>
<rect x="200" y="158" width="139.0" height="42" rx="5" fill="#8c564b"/>
<text x="347.0" y="184.0" font-family="Arial, sans-serif" font-size="13" fill="#333">10.69</text>
<text x="188" y="252.0" text-anchor="end" font-family="Arial, sans-serif" font-size="13" fill="#333">Organic Waste to Humus</text>
<rect x="200" y="226" width="101.9" height="42" rx="5" fill="#2ca02c"/>
<text x="309.9" y="252.0" font-family="Arial, sans-serif" font-size="13" fill="#333">7.84</text>
<text x="188" y="320.0" text-anchor="end" font-family="Arial, sans-serif" font-size="13" fill="#333">EEZ Ocean Cooling</text>
<rect x="200" y="294" width="90.4" height="42" rx="5" fill="#17becf"/>
<text x="298.4" y="320.0" font-family="Arial, sans-serif" font-size="13" fill="#333">6.95</text>
<text x="188" y="388.0" text-anchor="end" font-family="Arial, sans-serif" font-size="13" fill="#333">Urban Mist Cooling</text>
<rect x="200" y="362" width="60.5" height="42" rx="5" fill="#1f77b4"/>
<text x="268.5" y="388.0" font-family="Arial, sans-serif" font-size="13" fill="#333">4.66</text>
<text x="188" y="456.0" text-anchor="end" font-family="Arial, sans-serif" font-size="13" fill="#333">Accounting Offset Only</text>
<rect x="200" y="430" width="0.0" height="42" rx="5" fill="#6f6f6f"/>
<text x="208.0" y="456.0" font-family="Arial, sans-serif" font-size="13" fill="#333">0.00</text>
<line x1="200" y1="520" x2="850" y2="520" stroke="#333"/>
<text x="525.0" y="570" text-anchor="middle" font-family="Arial, sans-serif" font-size="14" fill="#555">Cooling Credit Value Index</text>
<text x="200" y="615" font-family="Arial, sans-serif" font-size="12" fill="#777">Conceptual deterministic model. Values are illustrative indices, not forecasts.</text>
</svg>