<svg xmlns="http://www.w3.org/2000/svg" width="1000" height="600" viewBox="0 0 1000 600"><rect width="100%" height="100%" fill="white"/><text x="500" y="38" text-anchor="middle" font-family="Arial" font-size="22" font-weight="700" fill="#333">Desert Edge Regeneration Outcomes</text><text x="500" y="62" text-anchor="middle" font-family="Arial" font-size="13" fill="#666">Final-year dryland indicators. Coastal desert edge scenario is strongest in desert-specific indices.</text><line x1="170" y1="500" x2="830" y2="500" stroke="#333"/><line x1="170" y1="100" x2="170" y2="500" stroke="#333"/><g font-family="Arial" font-size="12" fill="#666"><line x1="170" y1="420" x2="830" y2="420" stroke="#e6e6e6"/><text x="160" y="425" text-anchor="end">20</text><line x1="170" y1="340" x2="830" y2="340" stroke="#e6e6e6"/><text x="160" y="345" text-anchor="end">40</text><line x1="170" y1="260" x2="830" y2="260" stroke="#e6e6e6"/><text x="160" y="265" text-anchor="end">60</text><line x1="170" y1="180" x2="830" y2="180" stroke="#e6e6e6"/><text x="160" y="185" text-anchor="end">80</text></g><g><rect x="220" y="326" width="45" height="174" fill="#bcbd22"/><rect x="295" y="315" width="45" height="185" fill="#bcbd22"/><rect x="370" y="305" width="45" height="195" fill="#bcbd22"/><rect x="445" y="332" width="45" height="168" fill="#bcbd22"/><rect x="520" y="263" width="45" height="237" fill="#bcbd22"/><rect x="610" y="320" width="35" height="180" fill="#d62728" opacity="0.75"/><rect x="665" y="311" width="35" height="189" fill="#d62728" opacity="0.75"/><rect x="720" y="261" width="35" height="239" fill="#d62728" opacity="0.75"/></g><g font-family="Arial" font-size="12" fill="#333"><text x="242" y="530" text-anchor="end" transform="rotate(-30 242,530)">Surface cooling</text><text x="317" y="530" text-anchor="end" transform="rotate(-30 317,530)">Water supply</text><text x="392" y="530" text-anchor="end" transform="rotate(-30 392,530)">Humus settlement</text><text x="467" y="530" text-anchor="end" transform="rotate(-30 467,530)">Vegetation</text><text x="542" y="530" text-anchor="end" transform="rotate(-30 542,530)">Energy &amp; underground</text></g><g font-family="Arial" font-size="13" fill="#333"><rect x="805" y="120" width="22" height="14" fill="#bcbd22"/><text x="837" y="132">Coastal Desert Edge</text><rect x="805" y="152" width="22" height="14" fill="#d62728" opacity="0.75"/><text x="837" y="164">Integrated</text></g><text x="170" y="585" font-family="Arial" font-size="12" fill="#777">Conceptual deterministic model. Requires sanitation, water balance, soil testing, and local MRV.</text></svg>