<svg xmlns="http://www.w3.org/2000/svg" width="1000" height="560" viewBox="0 0 1000 560"><rect width="100%" height="100%" fill="white"/><text x="500" y="38" text-anchor="middle" font-family="Arial" font-size="22" font-weight="700" fill="#333">Final-Year Physical Outcomes</text><text x="500" y="62" text-anchor="middle" font-family="Arial" font-size="13" fill="#666">Integrated, desert-edge, and ocean scenarios compared by selected indices.</text><line x1="120" y1="480" x2="820" y2="480" stroke="#333"/><line x1="120" y1="100" x2="120" y2="480" stroke="#333"/><g font-family="Arial" font-size="12" fill="#666"><line x1="120" y1="404" x2="820" y2="404" stroke="#e6e6e6"/><text x="110" y="409" text-anchor="end">20</text><line x1="120" y1="328" x2="820" y2="328" stroke="#e6e6e6"/><text x="110" y="333" text-anchor="end">40</text><line x1="120" y1="252" x2="820" y2="252" stroke="#e6e6e6"/><text x="110" y="257" text-anchor="end">60</text><line x1="120" y1="176" x2="820" y2="176" stroke="#e6e6e6"/><text x="110" y="181" text-anchor="end">80</text></g><g fill="#d62728"><rect x="170" y="282" width="32" height="198"/><rect x="210" y="100" width="32" height="380"/><rect x="250" y="132" width="32" height="348"/><rect x="290" y="303" width="32" height="177"/><rect x="330" y="207" width="32" height="273"/></g><g fill="#bcbd22"><rect x="410" y="396" width="32" height="84"/><rect x="450" y="237" width="32" height="243"/><rect x="490" y="298" width="32" height="182"/><rect x="530" y="315" width="32" height="165"/><rect x="570" y="321" width="32" height="159"/></g><g fill="#17becf"><rect x="650" y="415" width="32" height="65"/><rect x="690" y="393" width="32" height="87"/><rect x="730" y="402" width="32" height="78"/><rect x="770" y="292" width="32" height="188"/></g><g font-family="Arial" font-size="12" fill="#333"><text x="270" y="515" text-anchor="middle">Integrated</text><text x="500" y="515" text-anchor="middle">Desert Edge</text><text x="725" y="515" text-anchor="middle">EEZ Ocean</text></g><g font-family="Arial" font-size="13" fill="#333"><rect x="840" y="120" width="22" height="14" fill="#d62728"/><text x="872" y="132">Integrated</text><rect x="840" y="152" width="22" height="14" fill="#bcbd22"/><text x="872" y="164">Desert Edge</text><rect x="840" y="184" width="22" height="14" fill="#17becf"/><text x="872" y="196">EEZ Ocean</text></g><text x="120" y="545" font-family="Arial" font-size="12" fill="#777">Conceptual deterministic model. Values are illustrative indices, not forecasts.</text></svg>