<svg xmlns="http://www.w3.org/2000/svg" width="1200" height="700" viewBox="0 0 1200 700">
<rect width="100%" height="100%" fill="white"/>
<text x="600.0" y="36" text-anchor="middle" font-family="Arial, sans-serif" font-size="24" font-weight="700" fill="#333">Final-Year Physical Outcomes by Scenario</text>
<text x="600.0" y="60" text-anchor="middle" font-family="Arial, sans-serif" font-size="13" fill="#666">Year 20 index comparison. Higher is better except this is not a forecast.</text>
<line x1="130" y1="560.0" x2="900" y2="560.0" stroke="#e6e6e6"/>
<text x="120" y="565.0" text-anchor="end" font-family="Arial, sans-serif" font-size="12" fill="#666">0</text>
<line x1="130" y1="464.0" x2="900" y2="464.0" stroke="#e6e6e6"/>
<text x="120" y="469.0" text-anchor="end" font-family="Arial, sans-serif" font-size="12" fill="#666">20</text>
<line x1="130" y1="368.0" x2="900" y2="368.0" stroke="#e6e6e6"/>
<text x="120" y="373.0" text-anchor="end" font-family="Arial, sans-serif" font-size="12" fill="#666">40</text>
<line x1="130" y1="272.0" x2="900" y2="272.0" stroke="#e6e6e6"/>
<text x="120" y="277.0" text-anchor="end" font-family="Arial, sans-serif" font-size="12" fill="#666">60</text>
<line x1="130" y1="176.0" x2="900" y2="176.0" stroke="#e6e6e6"/>
<text x="120" y="181.0" text-anchor="end" font-family="Arial, sans-serif" font-size="12" fill="#666">80</text>
<line x1="130" y1="80.0" x2="900" y2="80.0" stroke="#e6e6e6"/>
<text x="120" y="85.0" text-anchor="end" font-family="Arial, sans-serif" font-size="12" fill="#666">100</text>
<line x1="130" y1="560" x2="900" y2="560" stroke="#333"/>
<line x1="130" y1="80" x2="130" y2="560" stroke="#333"/>
<rect x="146.9" y="560.0" width="19.7" height="0.0" fill="#4c78a8"/>
<rect x="171.0" y="560.0" width="19.7" height="0.0" fill="#59a14f"/>
<rect x="195.0" y="560.0" width="19.7" height="0.0" fill="#f28e2b"/>
<rect x="219.0" y="560.0" width="19.7" height="0.0" fill="#e15759"/>
<rect x="243.0" y="540.3" width="19.7" height="19.7" fill="#b07aa1"/>
<text x="207.0" y="582" text-anchor="end" transform="rotate(-35 207.0,582)" font-family="Arial, sans-serif" font-size="12" fill="#333">Accounting Offset Only</text>
<rect x="300.9" y="440.3" width="19.7" height="119.7" fill="#4c78a8"/>
<rect x="325.0" y="420.9" width="19.7" height="139.1" fill="#59a14f"/>
<rect x="349.0" y="456.4" width="19.7" height="103.6" fill="#f28e2b"/>
<rect x="373.0" y="466.7" width="19.7" height="93.3" fill="#e15759"/>
<rect x="397.0" y="424.9" width="19.7" height="135.1" fill="#b07aa1"/>
<text x="361.0" y="582" text-anchor="end" transform="rotate(-35 361.0,582)" font-family="Arial, sans-serif" font-size="12" fill="#333">Urban Mist Cooling</text>
<rect x="454.9" y="444.5" width="19.7" height="115.5" fill="#4c78a8"/>
<rect x="479.0" y="289.1" width="19.7" height="270.9" fill="#59a14f"/>
<rect x="503.0" y="315.4" width="19.7" height="244.6" fill="#f28e2b"/>
<rect x="527.0" y="428.0" width="19.7" height="132.0" fill="#e15759"/>
<rect x="551.0" y="343.0" width="19.7" height="217.0" fill="#b07aa1"/>
<text x="515.0" y="582" text-anchor="end" transform="rotate(-35 515.0,582)" font-family="Arial, sans-serif" font-size="12" fill="#333">Organic Waste to Humus</text>
<rect x="608.9" y="422.8" width="19.7" height="137.2" fill="#4c78a8"/>
<rect x="633.0" y="277.8" width="19.7" height="282.2" fill="#59a14f"/>
<rect x="657.0" y="251.6" width="19.7" height="308.4" fill="#f28e2b"/>
<rect x="681.0" y="371.5" width="19.7" height="188.5" fill="#e15759"/>
<rect x="705.0" y="335.2" width="19.7" height="224.8" fill="#b07aa1"/>
<text x="669.0" y="582" text-anchor="end" transform="rotate(-35 669.0,582)" font-family="Arial, sans-serif" font-size="12" fill="#333">Forest Regeneration</text>
<rect x="762.9" y="282.9" width="19.7" height="277.1" fill="#4c78a8"/>
<rect x="787.0" y="115.5" width="19.7" height="444.5" fill="#59a14f"/>
<rect x="811.0" y="128.2" width="19.7" height="431.8" fill="#f28e2b"/>
<rect x="835.0" y="240.3" width="19.7" height="319.7" fill="#e15759"/>
<rect x="859.0" y="218.9" width="19.7" height="341.1" fill="#b07aa1"/>
<text x="823.0" y="582" text-anchor="end" transform="rotate(-35 823.0,582)" font-family="Arial, sans-serif" font-size="12" fill="#333">Integrated Natural Feedback</text>
<text x="935" y="90" font-family="Arial, sans-serif" font-size="15" font-weight="700" fill="#333">Index</text>
<rect x="935" y="88" width="22" height="14" fill="#4c78a8"/>
<text x="967" y="100" font-family="Arial, sans-serif" font-size="13" fill="#333">Physical cooling</text>
<rect x="935" y="120" width="22" height="14" fill="#59a14f"/>
<text x="967" y="132" font-family="Arial, sans-serif" font-size="13" fill="#333">Water retention</text>
<rect x="935" y="152" width="22" height="14" fill="#f28e2b"/>
<text x="967" y="164" font-family="Arial, sans-serif" font-size="13" fill="#333">Evapotranspiration</text>
<rect x="935" y="184" width="22" height="14" fill="#e15759"/>
<text x="967" y="196" font-family="Arial, sans-serif" font-size="13" fill="#333">Disaster pressure reduction</text>
<rect x="935" y="216" width="22" height="14" fill="#b07aa1"/>
<text x="967" y="228" font-family="Arial, sans-serif" font-size="13" fill="#333">Local co-benefit</text>
<text x="130" y="675" font-family="Arial, sans-serif" font-size="12" fill="#777">Conceptual deterministic model. Local data and independent MRV are required before policy or investment use.</text>
</svg>