<svg xmlns="http://www.w3.org/2000/svg" width="1250" height="720" viewBox="0 0 1250 720">
<rect width="100%" height="100%" fill="white"/>
<text x="625" y="38" text-anchor="middle" font-family="Arial, sans-serif" font-size="24" font-weight="700" fill="#333">Final-Year Physical Outcomes with EEZ Ocean Scenario</text>
<text x="625" y="64" text-anchor="middle" font-family="Arial, sans-serif" font-size="13" fill="#666">Year 20 index comparison. Higher is better except this is not a forecast.</text>
<line x1="110" y1="520.0" x2="890" y2="520.0" stroke="#e6e6e6"/>
<text x="100" y="525.0" text-anchor="end" font-family="Arial, sans-serif" font-size="12" fill="#666">0</text>
<line x1="110" y1="434.0" x2="890" y2="434.0" stroke="#e6e6e6"/>
<text x="100" y="439.0" text-anchor="end" font-family="Arial, sans-serif" font-size="12" fill="#666">20</text>
<line x1="110" y1="348.0" x2="890" y2="348.0" stroke="#e6e6e6"/>
<text x="100" y="353.0" text-anchor="end" font-family="Arial, sans-serif" font-size="12" fill="#666">40</text>
<line x1="110" y1="262.0" x2="890" y2="262.0" stroke="#e6e6e6"/>
<text x="100" y="267.0" text-anchor="end" font-family="Arial, sans-serif" font-size="12" fill="#666">60</text>
<line x1="110" y1="176.0" x2="890" y2="176.0" stroke="#e6e6e6"/>
<text x="100" y="181.0" text-anchor="end" font-family="Arial, sans-serif" font-size="12" fill="#666">80</text>
<line x1="110" y1="90.0" x2="890" y2="90.0" stroke="#e6e6e6"/>
<text x="100" y="95.0" text-anchor="end" font-family="Arial, sans-serif" font-size="12" fill="#666">100</text>
<line x1="110" y1="520" x2="890" y2="520" stroke="#333"/>
<line x1="110" y1="90" x2="110" y2="520" stroke="#333"/>
<rect x="119.3" y="287.4" width="16.0" height="232.6" fill="#d62728"/>
<rect x="139.4" y="100.7" width="16.0" height="419.3" fill="#d62728"/>
<rect x="159.5" y="133.1" width="16.0" height="386.9" fill="#d62728"/>
<rect x="179.6" y="322.7" width="16.0" height="197.3" fill="#d62728"/>
<rect x="199.7" y="246.3" width="16.0" height="273.7" fill="#d62728"/>
<rect x="219.8" y="227.4" width="16.0" height="292.6" fill="#d62728"/>
<rect x="249.3" y="422.3" width="16.0" height="97.7" fill="#8c564b"/>
<rect x="269.4" y="265.5" width="16.0" height="254.5" fill="#8c564b"/>
<rect x="289.5" y="243.8" width="16.0" height="276.2" fill="#8c564b"/>
<rect x="309.6" y="491.8" width="16.0" height="28.2" fill="#8c564b"/>
<rect x="329.7" y="379.6" width="16.0" height="140.4" fill="#8c564b"/>
<rect x="349.8" y="341.6" width="16.0" height="178.4" fill="#8c564b"/>
<rect x="379.3" y="438.9" width="16.0" height="81.1" fill="#2ca02c"/>
<rect x="399.4" y="276.7" width="16.0" height="243.3" fill="#2ca02c"/>
<rect x="419.5" y="300.8" width="16.0" height="219.2" fill="#2ca02c"/>
<rect x="439.6" y="502.8" width="16.0" height="17.2" fill="#2ca02c"/>
<rect x="459.7" y="421.4" width="16.0" height="98.6" fill="#2ca02c"/>
<rect x="479.8" y="349.9" width="16.0" height="170.1" fill="#2ca02c"/>
<rect x="509.3" y="432.9" width="16.0" height="87.1" fill="#17becf"/>
<rect x="529.4" y="401.2" width="16.0" height="118.8" fill="#17becf"/>
<rect x="549.5" y="420.8" width="16.0" height="99.2" fill="#17becf"/>
<rect x="569.6" y="307.5" width="16.0" height="212.5" fill="#17becf"/>
<rect x="589.7" y="441.3" width="16.0" height="78.7" fill="#17becf"/>
<rect x="609.8" y="391.9" width="16.0" height="128.1" fill="#17becf"/>
<rect x="639.3" y="437.8" width="16.0" height="82.2" fill="#1f77b4"/>
<rect x="659.4" y="394.4" width="16.0" height="125.6" fill="#1f77b4"/>
<rect x="679.5" y="427.2" width="16.0" height="92.8" fill="#1f77b4"/>
<rect x="699.6" y="505.9" width="16.0" height="14.1" fill="#1f77b4"/>
<rect x="719.7" y="447.6" width="16.0" height="72.4" fill="#1f77b4"/>
<rect x="739.8" y="412.4" width="16.0" height="107.6" fill="#1f77b4"/>
<rect x="769.3" y="520.0" width="16.0" height="0.0" fill="#6f6f6f"/>
<rect x="789.4" y="520.0" width="16.0" height="0.0" fill="#6f6f6f"/>
<rect x="809.5" y="520.0" width="16.0" height="0.0" fill="#6f6f6f"/>
<rect x="829.6" y="520.0" width="16.0" height="0.0" fill="#6f6f6f"/>
<rect x="849.7" y="520.0" width="16.0" height="0.0" fill="#6f6f6f"/>
<rect x="869.8" y="503.9" width="16.0" height="16.1" fill="#6f6f6f"/>
<text x="175" y="548" text-anchor="end" transform="rotate(-35 175,548)" font-family="Arial, sans-serif" font-size="11" fill="#333">Integrated Natural Feedback</text>
<text x="305" y="548" text-anchor="end" transform="rotate(-35 305,548)" font-family="Arial, sans-serif" font-size="11" fill="#333">Forest Regeneration</text>
<text x="435" y="548" text-anchor="end" transform="rotate(-35 435,548)" font-family="Arial, sans-serif" font-size="11" fill="#333">Organic Waste to Humus</text>
<text x="565" y="548" text-anchor="end" transform="rotate(-35 565,548)" font-family="Arial, sans-serif" font-size="11" fill="#333">EEZ Ocean Cooling</text>
<text x="695" y="548" text-anchor="end" transform="rotate(-35 695,548)" font-family="Arial, sans-serif" font-size="11" fill="#333">Urban Mist Cooling</text>
<text x="825" y="548" text-anchor="end" transform="rotate(-35 825,548)" font-family="Arial, sans-serif" font-size="11" fill="#333">Accounting Offset Only</text>
<text x="930" y="80" font-family="Arial, sans-serif" font-size="15" font-weight="700" fill="#333">Index</text>
<rect x="930" y="98" width="22" height="14" fill="#4c78a8"/><text x="962" y="110" font-family="Arial, sans-serif" font-size="13" fill="#333">Physical cooling</text>
<rect x="930" y="130" width="22" height="14" fill="#59a14f"/><text x="962" y="142" font-family="Arial, sans-serif" font-size="13" fill="#333">Water retention</text>
<rect x="930" y="162" width="22" height="14" fill="#f28e2b"/><text x="962" y="174" font-family="Arial, sans-serif" font-size="13" fill="#333">Evapotranspiration</text>
<rect x="930" y="194" width="22" height="14" fill="#17becf"/><text x="962" y="206" font-family="Arial, sans-serif" font-size="13" fill="#333">Ocean surface cooling</text>
<rect x="930" y="226" width="22" height="14" fill="#e15759"/><text x="962" y="238" font-family="Arial, sans-serif" font-size="13" fill="#333">Disaster pressure reduction</text>
<rect x="930" y="258" width="22" height="14" fill="#b07aa1"/><text x="962" y="270" font-family="Arial, sans-serif" font-size="13" fill="#333">Local co-benefit</text>
<text x="110" y="690" font-family="Arial, sans-serif" font-size="12" fill="#777">Conceptual deterministic model. Local data and independent MRV are required before policy or investment use.</text>
</svg>