<svg xmlns="http://www.w3.org/2000/svg" width="1000" height="620" viewBox="0 0 1000 620">
<rect width="100%" height="100%" fill="white"/>
<text x="500" y="38" text-anchor="middle" font-family="Arial" font-size="24" font-weight="700" fill="#333">Ocean Cooling and Marine Co-benefit Outcomes</text>
<text x="500" y="62" text-anchor="middle" font-family="Arial" font-size="13" fill="#666">Final-year ocean-related indices. Higher is better. Values are illustrative.</text>
<line x1="120" y1="520" x2="780" y2="520" stroke="#333"/>
<line x1="120" y1="90" x2="120" y2="520" stroke="#333"/>
<g font-family="Arial" font-size="12" fill="#666">
<line x1="120" y1="520" x2="780" y2="520" stroke="#e6e6e6"/><text x="110" y="525" text-anchor="end">0</text>
<line x1="120" y1="434" x2="780" y2="434" stroke="#e6e6e6"/><text x="110" y="439" text-anchor="end">20</text>
<line x1="120" y1="348" x2="780" y2="348" stroke="#e6e6e6"/><text x="110" y="353" text-anchor="end">40</text>
<line x1="120" y1="262" x2="780" y2="262" stroke="#e6e6e6"/><text x="110" y="267" text-anchor="end">60</text>
<line x1="120" y1="176" x2="780" y2="176" stroke="#e6e6e6"/><text x="110" y="181" text-anchor="end">80</text>
<line x1="120" y1="90" x2="780" y2="90" stroke="#e6e6e6"/><text x="110" y="95" text-anchor="end">100</text>
</g>
<g fill="#17becf">
<rect x="170" y="307" width="42" height="213"/><rect x="300" y="296" width="42" height="224"/><rect x="430" y="271" width="42" height="249"/><rect x="560" y="270" width="42" height="250"/>
</g>
<g fill="#d62728" opacity="0.75">
<rect x="215" y="323" width="42" height="197"/><rect x="345" y="308" width="42" height="212"/><rect x="475" y="312" width="42" height="198"/><rect x="605" y="307" width="42" height="203"/>
</g>
<g font-family="Arial" font-size="12" fill="#333">
<text x="230" y="548" text-anchor="end" transform="rotate(-30 230,548)">Ocean surface cooling</text>
<text x="360" y="548" text-anchor="end" transform="rotate(-30 360,548)">Dissolved oxygen</text>
<text x="490" y="548" text-anchor="end" transform="rotate(-30 490,548)">Marine food web</text>
<text x="620" y="548" text-anchor="end" transform="rotate(-30 620,548)">Fishery and tourism</text>
</g>
<g font-family="Arial" font-size="13" fill="#333">
<rect x="805" y="105" width="22" height="14" fill="#17becf"/><text x="837" y="117">EEZ Ocean Cooling</text>
<rect x="805" y="138" width="22" height="14" fill="#d62728" opacity="0.75"/><text x="837" y="150">Integrated Natural Feedback</text>
</g>
<text x="120" y="600" font-family="Arial" font-size="12" fill="#777">Conceptual deterministic model. Use local measurement and independent MRV before real-world use.</text>
</svg>